CP4_T0_10_IK_adjusted.mot
version=1
nRows=51
nColumns=11
inDegrees=no
endheader
                time	         pelvis_tilt	           pelvis_tx	           pelvis_ty	       hip_flexion_l	       hip_flexion_r	        knee_angle_l	        knee_angle_r	       ankle_angle_l	       ankle_angle_r	    lumbar_extension	
          0.00000000	          0.09733582	          0.00000000	          0.88590927	         -0.15202650	          0.37794521	         -0.64793787	         -0.32479688	          0.35216568	         -0.12138434	         -0.15016612	
          0.01000000	          0.08943712	          0.01358238	          0.88486351	         -0.15014429	          0.38539419	         -0.66124939	         -0.35183624	          0.32454464	         -0.13453264	         -0.13636639	
          0.02000000	          0.07970406	          0.02740356	          0.88388171	         -0.14605888	          0.40096580	         -0.67421991	         -0.39233533	          0.29279973	         -0.11469277	         -0.12006351	
          0.03000000	          0.06934485	          0.04139234	          0.88311638	         -0.14045698	          0.41908921	         -0.68802992	         -0.43429784	          0.25893633	         -0.10258814	         -0.10249080	
          0.04000000	          0.06186604	          0.05543611	          0.88265492	         -0.13552656	          0.42899086	         -0.70451816	         -0.46627224	          0.21658596	         -0.09276540	         -0.08854073	
          0.05000000	          0.05692422	          0.06938674	          0.88265220	         -0.13103164	          0.43168659	         -0.72294569	         -0.49219258	          0.16688118	         -0.07378579	         -0.07819380	
          0.06000000	          0.05243100	          0.08326965	          0.88264862	         -0.12359002	          0.43094456	         -0.74480780	         -0.51375222	          0.11324770	         -0.05073251	         -0.06860099	
          0.07000000	          0.04673201	          0.09691404	          0.88253739	         -0.11149492	          0.42969875	         -0.76940246	         -0.53192965	          0.05413070	         -0.02675690	         -0.05859625	
          0.08000000	          0.04107714	          0.11026101	          0.88253127	         -0.09663371	          0.42657658	         -0.79525865	         -0.54649236	         -0.01053740	         -0.00456089	         -0.04959563	
          0.09000000	          0.03334127	          0.12313013	          0.88235732	         -0.07644487	          0.42534555	         -0.82303628	         -0.55992900	         -0.07663507	          0.01850213	         -0.03960684	
          0.10000000	          0.02509159	          0.13554938	          0.88219841	         -0.05273009	          0.42385248	         -0.85501464	         -0.57125120	         -0.13913219	          0.04068955	         -0.03044648	
          0.11000000	          0.01647555	          0.14764188	          0.88200997	         -0.02550239	          0.42266917	         -0.88953907	         -0.58090173	         -0.20079652	          0.06099314	         -0.02141619	
          0.12000000	          0.00892756	          0.15941601	          0.88202238	          0.00355134	          0.41875047	         -0.92710702	         -0.58737043	         -0.25966845	          0.07762171	         -0.01504154	
          0.13000000	          0.00193638	          0.17085909	          0.88215637	          0.03506128	          0.41391039	         -0.96715094	         -0.59276472	         -0.31577477	          0.09468307	         -0.00839452	
          0.14000000	         -0.00590248	          0.18164803	          0.88261377	          0.06985419	          0.40714267	         -1.00903190	         -0.59086846	         -0.34050713	          0.10611468	         -0.00284971	
          0.15000000	         -0.01182453	          0.19287501	          0.88338659	          0.10202078	          0.39692431	         -1.04906545	         -0.58741928	         -0.33094878	          0.11776873	          0.00172665	
          0.16000000	         -0.01810580	          0.20319976	          0.88443997	          0.13722936	          0.38658195	         -1.08681003	         -0.58040918	         -0.29728959	          0.12558251	          0.00513589	
          0.17000000	         -0.02314437	          0.21386719	          0.88581264	          0.17032803	          0.37265309	         -1.11758929	         -0.57009338	         -0.25972523	          0.13189213	          0.00857296	
          0.18000000	         -0.02674370	          0.22387277	          0.88756813	          0.20296380	          0.35739841	         -1.14371382	         -0.55823338	         -0.22841319	          0.13540290	          0.00891895	
          0.19000000	         -0.03036269	          0.23449644	          0.88934143	          0.23472842	          0.34045309	         -1.16340465	         -0.54491488	         -0.20399746	          0.13920807	          0.01116909	
          0.20000000	         -0.03311530	          0.24480147	          0.89132374	          0.26570070	          0.32169681	         -1.17833792	         -0.52853392	         -0.17962632	          0.14004867	          0.01189749	
          0.21000000	         -0.03459221	          0.25501428	          0.89337355	          0.29499634	          0.30170806	         -1.18807794	         -0.51210826	         -0.16037240	          0.14042872	          0.01104770	
          0.22000000	         -0.03641221	          0.26484248	          0.89543842	          0.32503122	          0.28343580	         -1.19500157	         -0.49704657	         -0.14121677	          0.13878857	          0.00985538	
          0.23000000	         -0.03687544	          0.27459271	          0.89759183	          0.35327444	          0.26368935	         -1.19706486	         -0.48138315	         -0.12508071	          0.13529144	          0.00702268	
          0.24000000	         -0.03661538	          0.28423295	          0.89969433	          0.38026214	          0.24408141	         -1.19470414	         -0.46693389	         -0.10992915	          0.13166973	          0.00316735	
          0.25000000	         -0.03669783	          0.29383735	          0.90165277	          0.40693869	          0.22533825	         -1.18861522	         -0.45313851	         -0.09410926	          0.12637494	         -0.00030970	
          0.26000000	         -0.03652231	          0.30336651	          0.90355070	          0.43251609	          0.20788788	         -1.17845558	         -0.44183395	         -0.07777533	          0.12315475	         -0.00420367	
          0.27000000	         -0.03567248	          0.31284612	          0.90538345	          0.45673399	          0.19080834	         -1.16381303	         -0.43173379	         -0.06429691	          0.11688545	         -0.00889483	
          0.28000000	         -0.03483853	          0.32218426	          0.90703487	          0.48015681	          0.17489252	         -1.14625481	         -0.42392847	         -0.04872225	          0.11257728	         -0.01392519	
          0.29000000	         -0.03392663	          0.33142535	          0.90853113	          0.50261473	          0.16031111	         -1.12421829	         -0.41858559	         -0.03776297	          0.10684201	         -0.01904707	
          0.30000000	         -0.03258222	          0.34066260	          0.90984739	          0.52324303	          0.14566316	         -1.09873439	         -0.41292178	         -0.02760089	          0.09996361	         -0.02462855	
          0.31000000	         -0.03200279	          0.34974388	          0.91088358	          0.54373183	          0.13393633	         -1.07004244	         -0.41197886	         -0.01729367	          0.09608125	         -0.02989130	
          0.32000000	         -0.02902699	          0.35894644	          0.91187546	          0.55972657	          0.11961652	         -1.03809987	         -0.41110671	         -0.00921757	          0.09345721	         -0.03740058	
          0.33000000	         -0.02736167	          0.36813971	          0.91247423	          0.57572835	          0.10809410	         -1.00304899	         -0.41293378	         -0.00403441	          0.09145891	         -0.04328733	
          0.34000000	         -0.02553807	          0.37722054	          0.91285355	          0.59029253	          0.09623590	         -0.96474611	         -0.41437952	         -0.00404218	          0.08949798	         -0.04967306	
          0.35000000	         -0.02164249	          0.38648502	          0.91315410	          0.60039976	          0.08301830	         -0.92351506	         -0.41822183	         -0.00364012	          0.08795975	         -0.05826639	
          0.36000000	         -0.01993946	          0.39585954	          0.91294041	          0.61106575	          0.07296296	         -0.87991835	         -0.42392872	         -0.00405747	          0.08667435	         -0.06381166	
          0.37000000	         -0.01758466	          0.40546953	          0.91252838	          0.61904500	          0.06178113	         -0.83344947	         -0.42926434	         -0.00856324	          0.08754112	         -0.06956817	
          0.38000000	         -0.01491611	          0.41504111	          0.91194551	          0.62507108	          0.05093925	         -0.78548082	         -0.43623683	         -0.01320988	          0.09165245	         -0.07588711	
          0.39000000	         -0.01255933	          0.42466794	          0.91112391	          0.62916752	          0.04036505	         -0.73470670	         -0.44335799	         -0.02030596	          0.09349220	         -0.08176202	
          0.40000000	         -0.00925531	          0.43462623	          0.91009343	          0.63005739	          0.02835451	         -0.68240669	         -0.45032218	         -0.02881252	          0.09659191	         -0.08779674	
          0.41000000	         -0.00627751	          0.44468055	          0.90898802	          0.62923676	          0.01583999	         -0.62818742	         -0.45595314	         -0.04220965	          0.09816341	         -0.09359903	
          0.42000000	         -0.00234969	          0.45494405	          0.90773524	          0.62600675	          0.00407014	         -0.57453700	         -0.46521438	         -0.05701024	          0.10112814	         -0.09991245	
          0.43000000	          0.00003434	          0.46530018	          0.90632701	          0.62293659	         -0.00870032	         -0.52094685	         -0.47009107	         -0.07331407	          0.10250911	         -0.10404368	
          0.44000000	          0.00397162	          0.47592430	          0.90489510	          0.61715889	         -0.02244702	         -0.47009256	         -0.47654596	         -0.08351351	          0.10244908	         -0.10958046	
          0.45000000	          0.00654112	          0.48659137	          0.90324975	          0.61321851	         -0.03364157	         -0.42459303	         -0.48539999	         -0.09213235	          0.10465767	         -0.11317218	
          0.46000000	          0.00839987	          0.49746922	          0.90152883	          0.60908096	         -0.04455357	         -0.38346787	         -0.49355770	         -0.09746146	          0.10545240	         -0.11573018	
          0.47000000	          0.01090063	          0.50846412	          0.89981393	          0.60468317	         -0.05626874	         -0.34919209	         -0.50145113	         -0.09978071	          0.10509260	         -0.11907484	
          0.48000000	          0.01242483	          0.51958535	          0.89807620	          0.60077707	         -0.06661508	         -0.32098950	         -0.50954824	         -0.09995663	          0.10277571	         -0.12099531	
          0.49000000	          0.01323236	          0.53086110	          0.89625315	          0.59807790	         -0.07679777	         -0.30071056	         -0.51701175	         -0.09866848	          0.10079497	         -0.12189579	
          0.50000000	          0.01514901	          0.54250787	          0.89457257	          0.59438886	         -0.08905844	         -0.28862658	         -0.52347791	         -0.09609058	          0.09729032	         -0.12380611	
